<?xml version="1.0" encoding="UTF-8" standalone="no"?>
<!-- Created with Inkscape (http://www.inkscape.org/) -->

<svg
   width="1024"
   height="768"
   viewBox="0 0 1024 768"
   version="1.1"
   id="svg1"
   xml:space="preserve"
   inkscape:version="1.4 (86a8ad7, 2024-10-11)"
   sodipodi:docname="Icon.svg"
   inkscape:export-filename="Icon.png"
   inkscape:export-xdpi="96"
   inkscape:export-ydpi="96"
   xmlns:inkscape="http://www.inkscape.org/namespaces/inkscape"
   xmlns:sodipodi="http://sodipodi.sourceforge.net/DTD/sodipodi-0.dtd"
   xmlns="http://www.w3.org/2000/svg"
   xmlns:svg="http://www.w3.org/2000/svg"><sodipodi:namedview
     id="namedview1"
     pagecolor="#ffffff"
     bordercolor="#000000"
     borderopacity="0.25"
     inkscape:showpageshadow="2"
     inkscape:pageopacity="0.0"
     inkscape:pagecheckerboard="0"
     inkscape:deskcolor="#d1d1d1"
     inkscape:document-units="px"
     inkscape:zoom="0.5"
     inkscape:cx="445"
     inkscape:cy="437"
     inkscape:window-width="1366"
     inkscape:window-height="745"
     inkscape:window-x="-8"
     inkscape:window-y="-8"
     inkscape:window-maximized="1"
     inkscape:current-layer="layer4" /><defs
     id="defs1"><rect
       x="505.20354"
       y="179.87965"
       width="122.78938"
       height="158.58407"
       id="rect15" /><rect
       x="126.86726"
       y="144.99115"
       width="417.10124"
       height="620.18962"
       id="rect7" /><rect
       x="153.78634"
       y="141.61159"
       width="178.13584"
       height="172.36885"
       id="rect4" /><rect
       x="317.8251"
       y="351.14547"
       width="183.22433"
       height="86.599129"
       id="rect2" /><rect
       x="317.8251"
       y="351.14547"
       width="266.59424"
       height="202.59205"
       id="rect3" /></defs><rect
     style="fill:#4c4c4c;stroke-width:0.982;-inkscape-stroke:none;fill-opacity:1"
     id="rect1"
     width="1152"
     height="648"
     x="-64"
     y="60"
     inkscape:label="Background" /><path
     d="M 738.15514,165.31218 H 285.84486 v 470.38019 c 0,18.30863 14.73941,33.04804 33.04804,33.04804 h 386.2142 c 18.30863,0 33.04804,-14.73941 33.04804,-33.04804 z"
     style="fill:#363d52;stroke:#212532;stroke-width:11.7171"
     id="path14" /><path
     d="m 318.8929,99.259591 c -18.30863,0 -33.04804,14.739409 -33.04804,33.048039 v 33.00455 h 452.31028 v -33.00455 c 0,-18.30863 -14.73941,-33.048039 -33.04804,-33.048039 z"
     style="fill:#212532;fill-opacity:1;stroke:#212532;stroke-width:11.7171"
     id="path13" /><text
     xml:space="preserve"
     transform="matrix(1.1717053,0,0,1.1717053,118.51223,111.81994)"
     id="text7"
     style="font-style:normal;font-variant:normal;font-weight:bold;font-stretch:normal;font-size:53.3333px;line-height:47.4074px;font-family:Arial;-inkscape-font-specification:'Arial Bold';text-align:center;text-decoration-color:#000000;writing-mode:lr-tb;direction:ltr;white-space:pre;shape-inside:url(#rect7);display:inline;fill:#ffffff;fill-opacity:1;stroke-width:0.982;-inkscape-stroke:none"
     inkscape:label="IPC SharedMemory"><tspan
       x="290.96487"
       y="183.40083"
       id="tspan1">IPC
</tspan><tspan
       x="335.41797"
       y="230.80822"
       id="tspan3">
</tspan><tspan
       x="245.01438"
       y="278.21562"
       id="tspan4">Shared
</tspan><tspan
       x="233.16543"
       y="325.62303"
       id="tspan5">Memory</tspan></text><g
     inkscape:label="GodotIcon"
     inkscape:groupmode="layer"
     id="layer1"
     transform="matrix(0.75995903,0,0,0.75995903,843.58337,553.04051)"><g
       id="g2"
       transform="translate(-395,-2)"><g
         fill="#ffffff"
         transform="matrix(0.101,0,0,0.101,12.322,12.322)"
         id="g4"><path
           d="m 105,673 v 33 q 407,354 814,0 v -33 z"
           id="path1" /><path
           fill="#478cbf"
           d="m 105,673 152,14 q 12,1 15,14 l 4,67 132,10 8,-61 q 2,-11 15,-15 h 162 q 13,4 15,15 l 8,61 132,-10 4,-67 q 3,-13 15,-14 L 919,673 V 427 q 30,-39 56,-81 -35,-59 -83,-108 -43,20 -82,47 -40,-37 -88,-64 7,-51 8,-102 -59,-28 -123,-42 -26,43 -46,89 -49,-7 -98,0 -20,-46 -46,-89 -64,14 -123,42 1,51 8,102 -48,27 -88,64 -39,-27 -82,-47 -48,49 -83,108 26,42 56,81 z m 0,33 v 39 c 0,276 813,276 814,0 v -39 l -134,12 -5,69 q -2,10 -14,13 l -162,11 q -12,0 -16,-11 L 578,735 H 446 l -10,65 q -4,11 -16,11 L 258,800 q -12,-3 -14,-13 l -5,-69 z"
           id="path2-9" /><path
           d="m 483,600 c 0,34 58,34 58,0 v -86 c 0,-34 -58,-34 -58,0 z"
           id="path3" /><circle
           cx="725"
           cy="526"
           r="90"
           id="circle3" /><circle
           cx="299"
           cy="526"
           r="90"
           id="circle4" /></g><g
         fill="#414042"
         transform="matrix(0.101,0,0,0.101,12.322,12.322)"
         id="g6"><circle
           cx="307"
           cy="532"
           r="60"
           id="circle5" /><circle
           cx="717"
           cy="532"
           r="60"
           id="circle6" /></g></g></g><g
     inkscape:groupmode="layer"
     id="layer2"
     inkscape:label="CppIcon"
     transform="matrix(0.33155129,0,0,0.33155129,592.17936,523.01881)"><path
       sodipodi:type="star"
       style="fill:#478cbf;fill-opacity:1;stroke-width:0.982;-inkscape-stroke:none"
       id="path2"
       inkscape:flatsided="true"
       sodipodi:sides="6"
       sodipodi:cx="281.94162"
       sodipodi:cy="276.8154"
       sodipodi:r1="130.69325"
       sodipodi:r2="113.18368"
       sodipodi:arg1="1.0471976"
       sodipodi:arg2="1.5707963"
       inkscape:rounded="0.64526324"
       inkscape:randomized="0"
       d="m 347.28824,389.99908 c -73.03327,42.16577 -57.65999,42.16577 -130.69325,-10e-6 -73.03327,-42.16578 -65.34663,-28.85213 -65.34662,-113.18368 0,-84.33155 -7.68664,-71.0179 65.34663,-113.18367 73.03327,-42.16577 57.65999,-42.16577 130.69325,1e-5 73.03327,42.16577 65.34663,28.85212 65.34662,113.18368 0,84.33155 7.68664,71.0179 -65.34663,113.18367 z"
       transform="matrix(0.69962058,0,0,0.69962058,45.362077,39.652303)" /><circle
       style="fill:#ffffff;fill-opacity:1;stroke-width:0.984185;-inkscape-stroke:none"
       id="path5"
       cx="242.61424"
       cy="233.31805"
       r="70" /><path
       sodipodi:type="star"
       style="fill:#478cbf;fill-opacity:1;stroke-width:0.982;-inkscape-stroke:none"
       id="path6"
       inkscape:flatsided="true"
       sodipodi:sides="3"
       sodipodi:cx="310.77655"
       sodipodi:cy="185.18439"
       sodipodi:r1="72.927567"
       sodipodi:r2="36.463779"
       sodipodi:arg1="1.0471976"
       sodipodi:arg2="2.0943951"
       inkscape:rounded="0"
       inkscape:randomized="0"
       d="M 347.24033,248.34151 237.84898,185.18438 347.24034,122.02726 Z"
       inkscape:transform-center-x="18.106618"
       transform="matrix(0.84759201,0,0,0.84759201,20.296108,76.357246)"
       inkscape:transform-center-y="-3.7577996e-06" /><circle
       style="fill:#478cbf;fill-opacity:1;stroke-width:0.56397;-inkscape-stroke:none"
       id="circle7"
       cx="242.61424"
       cy="233.31805"
       r="40.112297" /><text
       xml:space="preserve"
       id="text1"
       style="font-style:normal;font-variant:normal;font-weight:900;font-stretch:normal;font-size:47.1201px;line-height:1;font-family:Arial;-inkscape-font-specification:'Arial Heavy';text-align:center;text-decoration-color:#000000;writing-mode:lr-tb;direction:ltr;white-space:pre;shape-inside:url(#rect2);display:inline;fill:#ffffff;fill-opacity:1;stroke-width:0.982;-inkscape-stroke:none"
       x="55.598988"
       y="0"
       transform="translate(-132.70835,-137.3186)"><tspan
         x="378.3299"
         y="387.50141"
         id="tspan6">++</tspan></text></g><g
     inkscape:groupmode="layer"
     id="layer3"
     inkscape:label="Close"
     transform="matrix(1.1717053,0,0,1.1717053,-87.913122,-65.934841)"><circle
       style="fill:#ffffff;fill-opacity:1;stroke:none;stroke-width:10;stroke-miterlimit:4;stroke-dasharray:none;stroke-opacity:1"
       id="path15"
       cx="673.01367"
       cy="169.17285"
       r="10" /><text
       xml:space="preserve"
       id="text15"
       style="font-style:normal;font-variant:normal;font-weight:normal;font-stretch:normal;font-size:26.6667px;line-height:23.7036px;font-family:Arial;-inkscape-font-specification:Arial;text-align:center;text-decoration-color:#000000;writing-mode:lr-tb;direction:ltr;white-space:pre;shape-inside:url(#rect15);display:inline;fill:#478cbf;fill-opacity:1;stroke:none;stroke-width:10;stroke-miterlimit:4;stroke-dasharray:none;stroke-opacity:1"
       transform="rotate(45,644.5716,307.88673)"><tspan
         x="558.81119"
         y="199.08417"
         id="tspan7">+</tspan></text></g><g
     inkscape:groupmode="layer"
     id="layer5"
     inkscape:label="books"
     transform="matrix(1.1717053,0,0,1.1717053,-70.622131,-65.934841)"><rect
       style="display:inline;fill:#478cbf;fill-opacity:1;stroke:none;stroke-width:10;stroke-miterlimit:4;stroke-dasharray:none;stroke-opacity:1"
       id="rect25"
       width="15"
       height="50"
       x="340"
       y="220" /><rect
       style="display:inline;fill:#ffffff;fill-opacity:1;stroke:none;stroke-width:10;stroke-miterlimit:4;stroke-dasharray:none;stroke-opacity:1"
       id="rect26"
       width="15"
       height="40"
       x="358"
       y="230" /><rect
       style="display:inline;fill:#478cbf;fill-opacity:1;stroke:none;stroke-width:10;stroke-miterlimit:4;stroke-dasharray:none;stroke-opacity:1"
       id="rect27"
       width="15"
       height="50"
       x="376"
       y="220" /><path
       style="fill:none;fill-opacity:1;stroke:#ffffff;stroke-width:5;stroke-miterlimit:4;stroke-dasharray:none;stroke-opacity:1"
       d="m 340,232.5 h 15"
       id="path27" /><path
       style="fill:none;fill-opacity:1;stroke:#ffffff;stroke-width:5;stroke-miterlimit:4;stroke-dasharray:none;stroke-opacity:1"
       d="m 376,232.5 h 15"
       id="path28" /><path
       style="fill:none;fill-opacity:1;stroke:#ffffff;stroke-width:5;stroke-miterlimit:4;stroke-dasharray:none;stroke-opacity:1"
       d="m 340,262.5 h 15"
       id="path29" /><path
       style="fill:none;fill-opacity:1;stroke:#ffffff;stroke-width:5;stroke-miterlimit:4;stroke-dasharray:none;stroke-opacity:1"
       d="m 376,262.5 h 15"
       id="path30" /><path
       style="fill:#478cbf;fill-opacity:1;stroke:#478cbf;stroke-width:5;stroke-miterlimit:4;stroke-dasharray:none;stroke-opacity:1"
       d="m 358,237.5 h 15"
       id="path31" /><path
       style="fill:none;fill-opacity:1;stroke:#478cbf;stroke-width:5;stroke-miterlimit:4;stroke-dasharray:none;stroke-opacity:1"
       d="m 358,262.5 h 15"
       id="path32" /></g><g
     inkscape:groupmode="layer"
     id="layer4"
     inkscape:label="gear"
     transform="matrix(1.1717053,0,0,1.1717053,-70.622131,-65.934841)"
     style="display:inline"><path
       id="path33"
       style="fill:#478cbf;fill-opacity:1;stroke:#ffffff;stroke-width:2.5;stroke-miterlimit:4;stroke-dasharray:none;stroke-opacity:1"
       d="m 319.99036,265.13358 5.31842,2.62488 a 14.578453,14.578453 0 0 0 -0.10775,3.0961 14.578453,14.578453 0 0 0 0.0304,0.38688 14.578453,14.578453 0 0 0 0.073,0.91155 l -5.35487,2.76315 0.82045,1.9314 0.81971,1.92969 0.82044,1.93142 5.61601,-1.90426 a 14.578453,14.578453 0 0 0 2.12208,2.27173 14.578453,14.578453 0 0 0 0.26945,0.22893 14.578453,14.578453 0 0 0 0.71272,0.60862 l -1.83129,5.7406 1.94479,0.78514 1.94479,0.78514 1.94478,0.78512 2.6249,-5.31842 a 14.578453,14.578453 0 0 0 3.09609,0.10775 14.578453,14.578453 0 0 0 0.38686,-0.0303 14.578453,14.578453 0 0 0 0.91158,-0.073 l 2.76312,5.35483 1.93143,-0.82044 1.9297,-0.81973 1.93143,-0.82044 -1.90427,-5.616 a 14.578453,14.578453 0 0 0 2.2717,-2.1221 14.578453,14.578453 0 0 0 0.22894,-0.26945 14.578453,14.578453 0 0 0 0.60863,-0.7127 l 5.74059,1.83128 0.78515,-1.94478 0.78512,-1.94479 0.78514,-1.94479 -5.31843,-2.62488 a 14.578453,14.578453 0 0 0 0.10776,-3.0961 14.578453,14.578453 0 0 0 -0.0304,-0.38687 14.578453,14.578453 0 0 0 -0.073,-0.91159 l 5.35488,-2.7631 -0.82045,-1.93141 -0.81974,-1.92971 -0.82042,-1.93141 -5.61601,1.90426 a 14.578453,14.578453 0 0 0 -1.96552,-2.13783 14.578453,14.578453 0 0 0 -0.96954,-0.8268 14.578453,14.578453 0 0 0 -0.1692,-0.14468 l 1.83128,-5.74062 -1.9448,-0.78517 -1.94476,-0.78511 -1.94478,-0.78513 -2.62247,5.31233 a 14.578453,14.578453 0 0 0 -4.39698,0.002 l -2.76311,-5.35485 -1.93144,0.82045 -1.9297,0.81971 -1.93143,0.82046 1.90431,5.61599 a 14.578453,14.578453 0 0 0 -2.27174,2.12209 14.578453,14.578453 0 0 0 -0.22895,0.26944 14.578453,14.578453 0 0 0 -0.6086,0.71272 l -5.7406,-1.83128 -0.78513,1.94477 -0.78515,1.94478 z" /><circle
       style="fill:#363d52;fill-opacity:1;stroke:#ffffff;stroke-width:2.5;stroke-miterlimit:4;stroke-dasharray:none;stroke-opacity:1"
       id="path34"
       cx="-63.826912"
       cy="429.44864"
       r="6.1658955"
       transform="rotate(-60)" /></g></svg>
